<svg id="svg" version="1.1" xmlns="http://www.w3.org/2000/svg" xmlns:xlink="http://www.w3.org/1999/xlink" width="400" height="600" viewBox="0, 0, 400,600"><g id="svgg"><path id="path0" d="M234.000 7.400 C 234.000 8.170,234.179 8.800,234.397 8.800 C 234.881 8.800,234.703 10.257,234.151 10.809 C 233.894 11.066,225.282 11.169,209.777 11.100 L 185.800 10.994 209.876 10.897 C 223.118 10.844,234.036 10.665,234.138 10.500 C 234.240 10.335,198.926 10.290,155.662 10.400 C 112.398 10.510,76.940 10.465,76.867 10.300 C 76.358 9.156,74.000 10.060,74.000 11.400 C 74.000 12.170,74.179 12.800,74.397 12.800 C 74.834 12.800,74.757 13.912,74.265 14.700 C 74.019 15.094,66.124 15.200,36.976 15.200 L 0.000 15.200 0.000 304.403 L 0.000 593.606 53.461 593.597 C 82.864 593.592,107.014 593.681,107.128 593.794 C 107.241 593.907,107.933 594.000,108.667 594.000 C 110.068 594.000,110.662 592.022,109.583 590.943 C 109.294 590.654,109.336 590.385,109.721 590.066 C 110.357 589.537,295.200 589.173,295.200 589.700 C 295.200 589.865,295.830 590.000,296.600 590.000 C 297.933 590.000,298.000 589.933,298.000 588.600 C 298.000 587.830,297.821 587.200,297.603 587.200 C 297.384 587.200,297.261 586.836,297.328 586.391 C 297.451 585.587,297.630 585.583,332.081 585.596 C 363.119 585.607,366.736 585.544,366.951 584.983 C 367.107 584.578,367.030 584.458,366.734 584.641 C 366.445 584.819,366.386 584.746,366.575 584.441 C 366.927 583.870,367.213 456.923,366.893 443.103 L 366.673 433.605 365.240 432.903 C 364.451 432.516,363.609 431.796,363.368 431.303 C 363.053 430.658,362.921 391.533,362.900 292.103 L 362.871 153.800 361.536 153.108 C 358.595 151.583,358.856 158.868,358.889 79.292 C 358.914 20.323,358.827 7.821,358.392 7.923 C 357.961 8.023,357.959 7.932,358.377 7.427 C 359.244 6.382,359.645 6.389,297.300 6.496 C 264.025 6.553,236.800 6.465,236.800 6.300 C 236.800 6.135,236.170 6.000,235.400 6.000 C 234.067 6.000,234.000 6.067,234.000 7.400 M395.200 6.427 C 395.200 6.672,394.859 6.746,394.400 6.600 C 393.941 6.454,393.600 6.528,393.600 6.773 C 393.600 7.008,393.825 7.203,394.100 7.206 C 394.494 7.211,394.492 7.281,394.092 7.535 C 393.683 7.794,393.562 36.570,393.468 154.828 C 393.404 235.663,393.307 351.390,393.252 412.000 C 393.198 472.610,393.173 536.134,393.198 553.164 C 393.252 589.350,393.997 585.243,387.303 585.652 C 381.781 585.989,382.297 585.911,382.583 586.372 C 382.709 586.577,382.630 586.858,382.407 586.996 C 381.260 587.705,381.968 590.000,383.333 590.000 C 384.067 590.000,384.772 589.895,384.900 589.767 C 385.029 589.638,388.479 589.555,392.567 589.582 L 400.000 589.631 400.000 440.416 L 400.000 291.200 399.024 291.200 C 398.487 291.200,397.946 291.037,397.823 290.837 C 397.480 290.283,397.357 8.800,397.700 8.800 C 397.865 8.800,398.000 8.170,398.000 7.400 C 398.000 6.067,397.933 6.000,396.600 6.000 C 395.830 6.000,395.200 6.192,395.200 6.427 M235.772 6.755 C 235.893 6.950,235.739 7.318,235.431 7.574 C 234.808 8.092,234.169 7.497,234.600 6.800 C 234.906 6.305,235.480 6.283,235.772 6.755 M365.550 6.567 C 365.523 6.695,365.455 6.980,365.400 7.200 C 365.345 7.420,365.269 7.735,365.232 7.900 C 365.031 8.791,365.213 150.147,365.416 150.354 C 365.549 150.489,366.229 150.795,366.929 151.034 C 369.354 151.861,369.195 142.204,369.148 285.600 C 369.125 358.310,369.127 420.633,369.153 424.095 L 369.200 430.389 370.551 430.954 C 371.790 431.472,372.500 432.132,372.644 432.900 C 372.675 433.065,372.740 433.245,372.789 433.300 C 372.838 433.355,372.940 465.954,373.015 505.743 C 373.091 545.532,373.240 578.173,373.346 578.279 C 373.453 578.386,373.868 578.369,374.270 578.241 C 375.020 578.003,375.363 302.438,374.614 301.676 C 374.465 301.524,373.771 301.205,373.071 300.966 C 372.372 300.728,371.604 300.145,371.365 299.670 C 371.054 299.053,370.925 258.673,370.913 158.103 L 370.897 17.400 369.748 16.879 C 367.826 16.007,367.396 15.693,367.500 15.237 C 367.555 14.997,367.409 14.800,367.175 14.800 C 366.906 14.800,366.770 13.594,366.803 11.500 C 366.831 9.685,366.820 8.065,366.777 7.900 C 366.735 7.735,366.678 7.390,366.650 7.133 C 366.598 6.649,365.638 6.155,365.550 6.567 M381.550 6.567 C 381.475 6.915,381.312 7.561,381.212 7.900 C 380.896 8.974,381.176 294.136,381.493 294.453 C 382.841 295.801,382.839 295.983,382.862 150.935 C 382.874 72.431,382.842 8.065,382.792 7.900 C 382.741 7.735,382.678 7.390,382.650 7.133 C 382.598 6.649,381.638 6.155,381.550 6.567 M397.400 6.800 C 397.831 7.497,397.192 8.092,396.569 7.574 C 396.261 7.318,396.107 6.950,396.228 6.755 C 396.520 6.283,397.094 6.305,397.400 6.800 M251.400 7.076 C 244.530 7.362,237.690 7.375,237.861 7.100 C 237.963 6.935,241.682 6.836,246.124 6.879 C 250.566 6.923,252.940 7.012,251.400 7.076 M289.100 7.100 C 284.095 7.163,275.905 7.163,270.900 7.100 C 265.895 7.036,269.990 6.984,280.000 6.984 C 290.010 6.984,294.105 7.036,289.100 7.100 M324.100 7.099 C 320.745 7.166,315.255 7.166,311.900 7.099 C 308.545 7.032,311.290 6.978,318.000 6.978 C 324.710 6.978,327.455 7.032,324.100 7.099 M357.507 7.086 C 356.906 7.177,355.826 7.179,355.107 7.090 C 354.388 7.001,354.880 6.926,356.200 6.924 C 357.520 6.922,358.108 6.995,357.507 7.086 M397.118 12.244 L 396.987 14.200 396.794 11.919 C 396.687 10.664,396.746 9.784,396.924 9.963 C 397.103 10.142,397.190 11.169,397.118 12.244 M75.772 10.755 C 75.893 10.950,75.739 11.318,75.431 11.574 C 74.808 12.092,74.169 11.497,74.600 10.800 C 74.906 10.305,75.480 10.283,75.772 10.755 M160.200 11.095 C 112.691 11.369,77.694 11.371,77.862 11.100 C 77.964 10.935,100.582 10.843,128.124 10.896 C 155.666 10.949,170.100 11.038,160.200 11.095 M37.000 14.400 L -0.200 14.606 36.876 14.703 C 61.268 14.767,74.037 14.663,74.200 14.400 C 74.336 14.180,74.392 14.044,74.324 14.097 C 74.256 14.150,57.460 14.287,37.000 14.400 M397.095 48.100 C 397.014 49.255,396.948 48.310,396.948 46.000 C 396.948 43.690,397.014 42.745,397.095 43.900 C 397.176 45.055,397.176 46.945,397.095 48.100 M397.087 61.100 C 396.995 61.705,396.920 61.210,396.920 60.000 C 396.920 58.790,396.995 58.295,397.087 58.900 C 397.178 59.505,397.178 60.495,397.087 61.100 M397.087 165.100 C 396.995 165.705,396.920 165.210,396.920 164.000 C 396.920 162.790,396.995 162.295,397.087 162.900 C 397.178 163.505,397.178 164.495,397.087 165.100 M397.941 290.501 C 398.143 290.703,398.733 290.801,399.254 290.719 C 400.055 290.593,399.998 290.537,398.887 290.352 C 398.093 290.221,397.719 290.279,397.941 290.501 M316.100 585.095 C 314.945 585.176,313.055 585.176,311.900 585.095 C 310.745 585.014,311.690 584.948,314.000 584.948 C 316.310 584.948,317.255 585.014,316.100 585.095 M340.100 585.095 C 338.945 585.176,337.055 585.176,335.900 585.095 C 334.745 585.014,335.690 584.948,338.000 584.948 C 340.310 584.948,341.255 585.014,340.100 585.095 M361.100 585.087 C 360.495 585.178,359.505 585.178,358.900 585.087 C 358.295 584.995,358.790 584.920,360.000 584.920 C 361.210 584.920,361.705 584.995,361.100 585.087 M297.315 589.245 C 296.640 589.920,295.837 589.278,296.444 588.547 C 296.778 588.144,297.054 588.094,297.343 588.383 C 297.632 588.672,297.624 588.936,297.315 589.245 M132.100 589.095 C 130.945 589.176,129.055 589.176,127.900 589.095 C 126.745 589.014,127.690 588.948,130.000 588.948 C 132.310 588.948,133.255 589.014,132.100 589.095 M153.100 589.087 C 152.495 589.178,151.505 589.178,150.900 589.087 C 150.295 588.995,150.790 588.920,152.000 588.920 C 153.210 588.920,153.705 588.995,153.100 589.087 M204.100 589.095 C 202.945 589.176,201.055 589.176,199.900 589.095 C 198.745 589.014,199.690 588.948,202.000 588.948 C 204.310 588.948,205.255 589.014,204.100 589.095 M276.100 589.095 C 274.945 589.176,273.055 589.176,271.900 589.095 C 270.745 589.014,271.690 588.948,274.000 588.948 C 276.310 588.948,277.255 589.014,276.100 589.095 M288.100 589.095 C 286.945 589.176,285.055 589.176,283.900 589.095 C 282.745 589.014,283.690 588.948,286.000 588.948 C 288.310 588.948,289.255 589.014,288.100 589.095 M396.100 589.095 C 394.945 589.176,393.055 589.176,391.900 589.095 C 390.745 589.014,391.690 588.948,394.000 588.948 C 396.310 588.948,397.255 589.014,396.100 589.095 M44.100 593.095 C 42.945 593.176,41.055 593.176,39.900 593.095 C 38.745 593.014,39.690 592.948,42.000 592.948 C 44.310 592.948,45.255 593.014,44.100 593.095 M92.100 593.095 C 90.945 593.176,89.055 593.176,87.900 593.095 C 86.745 593.014,87.690 592.948,90.000 592.948 C 92.310 592.948,93.255 593.014,92.100 593.095 M101.100 593.087 C 100.495 593.178,99.505 593.178,98.900 593.087 C 98.295 592.995,98.790 592.920,100.000 592.920 C 101.210 592.920,101.705 592.995,101.100 593.087 " stroke="none" fill="#f4f4f4" fill-rule="evenodd"></path><path id="path1" d="M298.400 6.400 C 332.390 6.512,359.991 6.648,359.735 6.702 C 359.480 6.756,359.331 7.115,359.405 7.500 C 359.478 7.885,359.554 8.290,359.572 8.400 C 359.590 8.510,359.602 40.578,359.600 79.663 L 359.596 150.725 360.898 151.748 C 361.614 152.311,362.515 153.047,362.900 153.385 C 363.564 153.969,363.600 161.090,363.600 292.364 L 363.600 430.729 364.746 431.664 C 365.377 432.179,366.232 432.800,366.646 433.044 C 367.356 433.461,368.324 583.143,367.622 583.845 C 367.225 584.242,367.301 585.206,367.735 585.297 C 367.991 585.350,352.362 585.485,333.005 585.597 C 302.105 585.775,297.806 585.873,297.767 586.400 C 297.742 586.745,297.794 586.787,297.891 586.500 C 298.196 585.590,381.886 585.788,382.124 586.700 C 382.288 587.326,382.312 587.329,382.354 586.727 C 382.416 585.820,383.527 585.521,387.888 585.236 C 392.677 584.923,393.064 584.582,392.831 580.884 C 392.586 577.003,392.744 322.030,393.097 152.300 C 393.299 55.373,393.266 6.782,393.000 6.747 C 392.780 6.718,393.230 6.562,394.000 6.400 C 394.770 6.238,359.670 6.126,316.000 6.151 L 236.600 6.196 298.400 6.400 M367.400 6.800 C 366.960 6.989,366.825 7.156,367.100 7.172 C 367.375 7.187,367.579 7.335,367.553 7.500 C 367.527 7.665,367.539 7.980,367.581 8.200 C 367.622 8.420,367.633 9.969,367.604 11.643 L 367.552 14.685 369.576 16.380 L 371.600 18.074 371.600 158.400 L 371.600 298.726 373.600 300.400 L 375.600 302.074 375.600 440.023 C 375.600 577.562,375.598 577.973,374.800 578.400 C 374.232 578.704,373.768 578.704,373.200 578.400 C 372.405 577.974,372.400 577.562,372.400 505.621 L 372.400 433.271 371.100 432.250 C 370.385 431.689,369.485 430.953,369.100 430.615 C 368.436 430.031,368.400 422.910,368.400 291.636 L 368.400 153.271 367.254 152.336 C 366.623 151.821,365.768 151.200,365.354 150.956 C 364.560 150.490,363.719 8.621,364.507 8.134 C 364.675 8.030,364.709 7.777,364.583 7.572 C 364.456 7.368,364.588 7.187,364.876 7.172 C 365.164 7.156,365.040 6.989,364.600 6.800 C 364.025 6.553,364.419 6.456,366.000 6.456 C 367.581 6.456,367.975 6.553,367.400 6.800 M383.400 6.800 C 382.960 6.989,382.825 7.156,383.100 7.172 C 383.375 7.187,383.579 7.335,383.553 7.500 C 383.527 7.665,383.527 7.980,383.554 8.200 C 384.205 13.572,383.466 293.912,382.799 294.579 C 382.000 295.377,382.000 295.377,381.201 294.579 C 380.534 293.912,379.795 13.572,380.446 8.200 C 380.473 7.980,380.473 7.665,380.447 7.500 C 380.421 7.335,380.625 7.187,380.900 7.172 C 381.175 7.156,381.040 6.989,380.600 6.800 C 380.025 6.553,380.419 6.456,382.000 6.456 C 383.581 6.456,383.975 6.553,383.400 6.800 M234.000 9.332 C 234.000 9.951,228.399 10.005,155.300 10.100 L 76.600 10.202 155.313 10.301 C 237.696 10.405,235.772 10.438,234.249 8.916 C 234.112 8.779,234.000 8.966,234.000 9.332 M397.799 149.600 L 397.800 290.200 398.905 290.249 C 399.916 290.293,399.924 290.283,399.006 290.122 L 398.001 289.947 397.900 149.473 L 397.798 9.000 397.799 149.600 M74.000 13.331 C 74.000 13.945,71.172 14.004,36.900 14.100 L -0.200 14.204 36.913 14.302 C 75.414 14.404,75.725 14.392,74.249 12.916 C 74.112 12.779,74.000 12.966,74.000 13.331 M109.738 590.217 C 109.608 590.557,109.613 590.947,109.751 591.084 C 109.888 591.221,110.000 591.034,110.000 590.668 C 110.000 590.049,116.535 589.995,202.700 589.900 L 295.400 589.798 202.687 589.699 C 119.434 589.610,109.951 589.663,109.738 590.217 M388.500 589.898 C 390.645 589.970,394.155 589.970,396.300 589.898 C 398.445 589.826,396.690 589.767,392.400 589.767 C 388.110 589.767,386.355 589.826,388.500 589.898 M26.700 593.900 C 41.495 593.958,65.705 593.958,80.500 593.900 C 95.295 593.842,83.190 593.794,53.600 593.794 C 24.010 593.794,11.905 593.842,26.700 593.900 " stroke="none" fill="#e4e4e4" fill-rule="evenodd"></path><path id="path2" d="M356.200 6.820 L 353.800 7.106 356.267 7.053 C 358.257 7.010,358.651 7.101,358.300 7.523 C 357.977 7.911,358.000 8.014,358.392 7.923 C 358.827 7.821,358.914 20.323,358.889 79.292 C 358.856 158.868,358.595 151.583,361.536 153.108 L 362.871 153.800 362.900 292.103 C 362.921 391.533,363.053 430.658,363.368 431.303 C 363.609 431.796,364.451 432.516,365.240 432.903 L 366.673 433.605 366.893 443.103 C 367.164 454.787,366.954 583.979,366.664 584.269 C 366.268 584.666,366.887 585.600,367.543 585.594 C 367.932 585.590,368.031 585.468,367.787 585.294 C 367.356 584.988,367.255 584.212,367.600 583.867 C 368.317 583.150,367.370 433.470,366.646 433.044 C 366.232 432.800,365.377 432.179,364.746 431.664 L 363.600 430.729 363.600 292.364 C 363.600 161.090,363.564 153.969,362.900 153.385 C 362.515 153.047,361.614 152.311,360.898 151.748 L 359.596 150.725 359.600 79.663 C 359.602 40.578,359.581 8.465,359.552 8.300 C 359.373 7.270,359.418 6.969,359.787 6.706 C 360.242 6.382,359.748 6.398,356.200 6.820 M237.861 7.100 C 237.758 7.265,240.133 7.353,243.137 7.296 C 253.218 7.105,254.260 6.960,246.124 6.879 C 241.682 6.836,237.963 6.935,237.861 7.100 M270.900 7.100 C 275.905 7.163,284.095 7.163,289.100 7.100 C 294.105 7.036,290.010 6.984,280.000 6.984 C 269.990 6.984,265.895 7.036,270.900 7.100 M311.900 7.099 C 315.255 7.166,320.745 7.166,324.100 7.099 C 327.455 7.032,324.710 6.978,318.000 6.978 C 311.290 6.978,308.545 7.032,311.900 7.099 M364.583 7.572 C 364.709 7.777,364.675 8.030,364.507 8.134 C 363.719 8.621,364.560 150.490,365.354 150.956 C 365.768 151.200,366.623 151.821,367.254 152.336 L 368.400 153.271 368.400 291.636 C 368.400 422.910,368.436 430.031,369.100 430.615 C 369.485 430.953,370.385 431.689,371.100 432.250 L 372.400 433.271 372.400 505.612 C 372.400 550.432,372.543 578.041,372.777 578.186 C 373.091 578.380,373.103 433.654,372.789 433.300 C 372.740 433.245,372.675 433.065,372.644 432.900 C 372.500 432.132,371.790 431.472,370.551 430.954 L 369.200 430.389 369.153 424.095 C 369.127 420.633,369.125 358.310,369.148 285.600 C 369.195 142.204,369.354 151.861,366.929 151.034 C 366.229 150.795,365.549 150.489,365.416 150.354 C 365.088 150.020,365.061 8.149,365.388 7.619 C 365.531 7.389,365.356 7.200,365.000 7.200 C 364.644 7.200,364.456 7.368,364.583 7.572 M366.632 7.652 C 366.786 7.901,366.875 9.611,366.831 11.452 C 366.777 13.706,366.897 14.800,367.199 14.800 C 367.445 14.800,367.549 14.960,367.428 15.155 C 367.153 15.599,367.896 16.209,369.200 16.610 C 370.107 16.888,370.077 16.813,368.876 15.803 C 367.580 14.712,367.553 14.625,367.604 11.644 C 367.633 9.970,367.622 8.420,367.581 8.200 C 367.539 7.980,367.527 7.665,367.553 7.500 C 367.579 7.335,367.319 7.200,366.976 7.200 C 366.615 7.200,366.470 7.390,366.632 7.652 M380.447 7.500 C 380.473 7.665,380.473 7.980,380.446 8.200 C 379.795 13.572,380.534 293.912,381.201 294.579 C 382.000 295.377,382.000 295.377,382.799 294.579 C 383.466 293.912,384.205 13.572,383.554 8.200 C 383.527 7.980,383.527 7.665,383.553 7.500 C 383.579 7.335,383.319 7.200,382.976 7.200 C 382.581 7.200,382.465 7.382,382.660 7.697 C 382.829 7.971,382.939 72.427,382.904 150.932 C 382.839 295.965,382.840 295.800,381.493 294.453 C 381.038 293.998,380.892 8.422,381.347 7.686 C 381.533 7.384,381.411 7.200,381.024 7.200 C 380.681 7.200,380.421 7.335,380.447 7.500 M393.286 12.300 L 393.372 17.400 393.499 12.615 C 393.585 9.418,393.788 7.728,394.113 7.521 C 394.450 7.308,394.384 7.210,393.900 7.206 C 393.265 7.201,393.208 7.675,393.286 12.300 M396.794 11.919 L 396.987 14.200 397.118 12.244 C 397.190 11.169,397.103 10.142,396.924 9.963 C 396.746 9.784,396.687 10.664,396.794 11.919 M234.163 10.397 C 233.912 10.648,224.964 10.833,209.783 10.900 L 185.800 11.006 209.851 11.103 C 230.822 11.188,233.966 11.123,234.400 10.600 C 234.956 9.930,234.780 9.780,234.163 10.397 M77.862 11.100 C 77.694 11.371,112.691 11.369,160.200 11.095 C 170.100 11.038,155.666 10.949,128.124 10.896 C 100.582 10.843,77.964 10.935,77.862 11.100 M74.162 14.398 C 73.905 14.655,60.632 14.833,36.782 14.900 L -0.200 15.004 36.851 15.102 C 69.378 15.188,73.963 15.127,74.400 14.600 C 74.956 13.930,74.780 13.780,74.162 14.398 M371.102 21.600 C 370.606 27.908,370.867 298.683,371.369 299.679 C 371.606 300.149,372.372 300.728,373.071 300.966 C 373.771 301.205,374.465 301.524,374.614 301.676 C 375.363 302.438,375.020 578.003,374.270 578.241 C 373.868 578.369,373.628 578.561,373.736 578.669 C 373.843 578.777,374.307 578.664,374.766 578.418 L 375.600 577.972 375.600 440.023 L 375.600 302.074 373.601 300.400 L 371.601 298.726 371.501 158.263 C 371.445 81.008,371.266 19.510,371.102 21.600 M393.384 36.000 C 393.384 45.570,393.436 49.485,393.500 44.700 C 393.563 39.915,393.563 32.085,393.500 27.300 C 393.436 22.515,393.384 26.430,393.384 36.000 M396.948 46.000 C 396.948 48.310,397.014 49.255,397.095 48.100 C 397.176 46.945,397.176 45.055,397.095 43.900 C 397.014 42.745,396.948 43.690,396.948 46.000 M393.382 70.000 C 393.382 78.470,393.435 81.935,393.499 77.700 C 393.564 73.465,393.564 66.535,393.499 62.300 C 393.435 58.065,393.382 61.530,393.382 70.000 M396.920 60.000 C 396.920 61.210,396.995 61.705,397.087 61.100 C 397.178 60.495,397.178 59.505,397.087 58.900 C 396.995 58.295,396.920 58.790,396.920 60.000 M393.387 110.000 C 393.387 122.870,393.438 128.135,393.500 121.700 C 393.562 115.265,393.562 104.735,393.500 98.300 C 393.438 91.865,393.387 97.130,393.387 110.000 M393.366 142.000 C 393.366 146.070,393.425 147.735,393.498 145.700 C 393.571 143.665,393.571 140.335,393.498 138.300 C 393.425 136.265,393.366 137.930,393.366 142.000 M393.390 180.000 C 393.390 196.170,393.439 202.785,393.500 194.700 C 393.560 186.615,393.560 173.385,393.500 165.300 C 393.439 157.215,393.390 163.830,393.390 180.000 M396.920 164.000 C 396.920 165.210,396.995 165.705,397.087 165.100 C 397.178 164.495,397.178 163.505,397.087 162.900 C 396.995 162.295,396.920 162.790,396.920 164.000 M393.376 222.000 C 393.376 228.270,393.432 230.835,393.499 227.700 C 393.567 224.565,393.567 219.435,393.499 216.300 C 393.432 213.165,393.376 215.730,393.376 222.000 M393.072 266.200 C 392.492 327.981,392.539 579.308,393.130 580.200 C 393.622 580.942,393.643 580.945,393.418 580.235 C 393.148 579.386,393.195 319.702,393.473 271.000 C 393.570 254.060,393.586 238.940,393.509 237.400 C 393.432 235.860,393.235 248.820,393.072 266.200 M397.549 290.500 C 397.852 290.886,398.570 291.176,399.149 291.146 L 400.200 291.091 399.200 290.907 C 398.650 290.806,397.930 290.516,397.600 290.262 C 397.078 289.860,397.071 289.891,397.549 290.500 M392.815 583.361 C 392.283 584.759,391.751 584.975,388.200 585.232 L 385.000 585.465 388.000 585.526 C 391.458 585.598,392.819 585.071,393.238 583.500 C 393.599 582.145,393.313 582.051,392.815 583.361 M311.900 585.095 C 313.055 585.176,314.945 585.176,316.100 585.095 C 317.255 585.014,316.310 584.948,314.000 584.948 C 311.690 584.948,310.745 585.014,311.900 585.095 M335.900 585.095 C 337.055 585.176,338.945 585.176,340.100 585.095 C 341.255 585.014,340.310 584.948,338.000 584.948 C 335.690 584.948,334.745 585.014,335.900 585.095 M358.900 585.087 C 359.505 585.178,360.495 585.178,361.100 585.087 C 361.705 584.995,361.210 584.920,360.000 584.920 C 358.790 584.920,358.295 584.995,358.900 585.087 M127.900 589.095 C 129.055 589.176,130.945 589.176,132.100 589.095 C 133.255 589.014,132.310 588.948,130.000 588.948 C 127.690 588.948,126.745 589.014,127.900 589.095 M150.900 589.087 C 151.505 589.178,152.495 589.178,153.100 589.087 C 153.705 588.995,153.210 588.920,152.000 588.920 C 150.790 588.920,150.295 588.995,150.900 589.087 M199.900 589.095 C 201.055 589.176,202.945 589.176,204.100 589.095 C 205.255 589.014,204.310 588.948,202.000 588.948 C 199.690 588.948,198.745 589.014,199.900 589.095 M271.900 589.095 C 273.055 589.176,274.945 589.176,276.100 589.095 C 277.255 589.014,276.310 588.948,274.000 588.948 C 271.690 588.948,270.745 589.014,271.900 589.095 M283.900 589.095 C 285.055 589.176,286.945 589.176,288.100 589.095 C 289.255 589.014,288.310 588.948,286.000 588.948 C 283.690 588.948,282.745 589.014,283.900 589.095 M391.900 589.095 C 393.055 589.176,394.945 589.176,396.100 589.095 C 397.255 589.014,396.310 588.948,394.000 588.948 C 391.690 588.948,390.745 589.014,391.900 589.095 M39.900 593.095 C 41.055 593.176,42.945 593.176,44.100 593.095 C 45.255 593.014,44.310 592.948,42.000 592.948 C 39.690 592.948,38.745 593.014,39.900 593.095 M87.900 593.095 C 89.055 593.176,90.945 593.176,92.100 593.095 C 93.255 593.014,92.310 592.948,90.000 592.948 C 87.690 592.948,86.745 593.014,87.900 593.095 M98.900 593.087 C 99.505 593.178,100.495 593.178,101.100 593.087 C 101.705 592.995,101.210 592.920,100.000 592.920 C 98.790 592.920,98.295 592.995,98.900 593.087 " stroke="none" fill="#f0f8ec" fill-rule="evenodd"></path><path id="path3" d="M356.200 6.820 L 353.800 7.106 356.267 7.053 C 358.257 7.010,358.651 7.101,358.300 7.523 C 357.977 7.911,358.000 8.014,358.392 7.923 C 358.827 7.821,358.914 20.323,358.889 79.292 C 358.856 158.868,358.595 151.583,361.536 153.108 L 362.871 153.800 362.900 292.103 C 362.921 391.533,363.053 430.658,363.368 431.303 C 363.609 431.796,364.451 432.516,365.240 432.903 L 366.673 433.605 366.893 443.103 C 367.164 454.787,366.954 583.979,366.664 584.269 C 366.268 584.666,366.887 585.600,367.543 585.594 C 367.932 585.590,368.031 585.468,367.787 585.294 C 367.356 584.988,367.255 584.212,367.600 583.867 C 368.317 583.150,367.370 433.470,366.646 433.044 C 366.232 432.800,365.377 432.179,364.746 431.664 L 363.600 430.729 363.600 292.364 C 363.600 161.090,363.564 153.969,362.900 153.385 C 362.515 153.047,361.614 152.311,360.898 151.748 L 359.596 150.725 359.600 79.663 C 359.602 40.578,359.581 8.465,359.552 8.300 C 359.373 7.270,359.418 6.969,359.787 6.706 C 360.242 6.382,359.748 6.398,356.200 6.820 M237.861 7.100 C 237.758 7.265,240.133 7.353,243.137 7.296 C 253.218 7.105,254.260 6.960,246.124 6.879 C 241.682 6.836,237.963 6.935,237.861 7.100 M270.900 7.100 C 275.905 7.163,284.095 7.163,289.100 7.100 C 294.105 7.036,290.010 6.984,280.000 6.984 C 269.990 6.984,265.895 7.036,270.900 7.100 M311.900 7.099 C 315.255 7.166,320.745 7.166,324.100 7.099 C 327.455 7.032,324.710 6.978,318.000 6.978 C 311.290 6.978,308.545 7.032,311.900 7.099 M364.583 7.572 C 364.709 7.777,364.675 8.030,364.507 8.134 C 363.719 8.621,364.560 150.490,365.354 150.956 C 365.768 151.200,366.623 151.821,367.254 152.336 L 368.400 153.271 368.400 291.636 C 368.400 422.910,368.436 430.031,369.100 430.615 C 369.485 430.953,370.385 431.689,371.100 432.250 L 372.400 433.271 372.400 505.612 C 372.400 550.432,372.543 578.041,372.777 578.186 C 373.091 578.380,373.103 433.654,372.789 433.300 C 372.740 433.245,372.675 433.065,372.644 432.900 C 372.500 432.132,371.790 431.472,370.551 430.954 L 369.200 430.389 369.153 424.095 C 369.127 420.633,369.125 358.310,369.148 285.600 C 369.195 142.204,369.354 151.861,366.929 151.034 C 366.229 150.795,365.549 150.489,365.416 150.354 C 365.088 150.020,365.061 8.149,365.388 7.619 C 365.531 7.389,365.356 7.200,365.000 7.200 C 364.644 7.200,364.456 7.368,364.583 7.572 M366.632 7.652 C 366.786 7.901,366.875 9.611,366.831 11.452 C 366.777 13.706,366.897 14.800,367.199 14.800 C 367.445 14.800,367.549 14.960,367.428 15.155 C 367.153 15.599,367.896 16.209,369.200 16.610 C 370.107 16.888,370.077 16.813,368.876 15.803 C 367.580 14.712,367.553 14.625,367.604 11.644 C 367.633 9.970,367.622 8.420,367.581 8.200 C 367.539 7.980,367.527 7.665,367.553 7.500 C 367.579 7.335,367.319 7.200,366.976 7.200 C 366.615 7.200,366.470 7.390,366.632 7.652 M380.447 7.500 C 380.473 7.665,380.473 7.980,380.446 8.200 C 379.795 13.572,380.534 293.912,381.201 294.579 C 382.000 295.377,382.000 295.377,382.799 294.579 C 383.466 293.912,384.205 13.572,383.554 8.200 C 383.527 7.980,383.527 7.665,383.553 7.500 C 383.579 7.335,383.319 7.200,382.976 7.200 C 382.581 7.200,382.465 7.382,382.660 7.697 C 382.829 7.971,382.939 72.427,382.904 150.932 C 382.839 295.965,382.840 295.800,381.493 294.453 C 381.038 293.998,380.892 8.422,381.347 7.686 C 381.533 7.384,381.411 7.200,381.024 7.200 C 380.681 7.200,380.421 7.335,380.447 7.500 M393.286 12.300 L 393.372 17.400 393.499 12.615 C 393.585 9.418,393.788 7.728,394.113 7.521 C 394.450 7.308,394.384 7.210,393.900 7.206 C 393.265 7.201,393.208 7.675,393.286 12.300 M396.794 11.919 L 396.987 14.200 397.118 12.244 C 397.190 11.169,397.103 10.142,396.924 9.963 C 396.746 9.784,396.687 10.664,396.794 11.919 M234.163 10.397 C 233.912 10.648,224.964 10.833,209.783 10.900 L 185.800 11.006 209.851 11.103 C 230.822 11.188,233.966 11.123,234.400 10.600 C 234.956 9.930,234.780 9.780,234.163 10.397 M77.862 11.100 C 77.694 11.371,112.691 11.369,160.200 11.095 C 170.100 11.038,155.666 10.949,128.124 10.896 C 100.582 10.843,77.964 10.935,77.862 11.100 M74.162 14.398 C 73.905 14.655,60.632 14.833,36.782 14.900 L -0.200 15.004 36.851 15.102 C 69.378 15.188,73.963 15.127,74.400 14.600 C 74.956 13.930,74.780 13.780,74.162 14.398 M371.102 21.600 C 370.606 27.908,370.867 298.683,371.369 299.679 C 371.606 300.149,372.372 300.728,373.071 300.966 C 373.771 301.205,374.465 301.524,374.614 301.676 C 375.363 302.438,375.020 578.003,374.270 578.241 C 373.868 578.369,373.628 578.561,373.736 578.669 C 373.843 578.777,374.307 578.664,374.766 578.418 L 375.600 577.972 375.600 440.023 L 375.600 302.074 373.601 300.400 L 371.601 298.726 371.501 158.263 C 371.445 81.008,371.266 19.510,371.102 21.600 M393.384 36.000 C 393.384 45.570,393.436 49.485,393.500 44.700 C 393.563 39.915,393.563 32.085,393.500 27.300 C 393.436 22.515,393.384 26.430,393.384 36.000 M396.948 46.000 C 396.948 48.310,397.014 49.255,397.095 48.100 C 397.176 46.945,397.176 45.055,397.095 43.900 C 397.014 42.745,396.948 43.690,396.948 46.000 M393.382 70.000 C 393.382 78.470,393.435 81.935,393.499 77.700 C 393.564 73.465,393.564 66.535,393.499 62.300 C 393.435 58.065,393.382 61.530,393.382 70.000 M396.920 60.000 C 396.920 61.210,396.995 61.705,397.087 61.100 C 397.178 60.495,397.178 59.505,397.087 58.900 C 396.995 58.295,396.920 58.790,396.920 60.000 M393.387 110.000 C 393.387 122.870,393.438 128.135,393.500 121.700 C 393.562 115.265,393.562 104.735,393.500 98.300 C 393.438 91.865,393.387 97.130,393.387 110.000 M393.366 142.000 C 393.366 146.070,393.425 147.735,393.498 145.700 C 393.571 143.665,393.571 140.335,393.498 138.300 C 393.425 136.265,393.366 137.930,393.366 142.000 M393.390 180.000 C 393.390 196.170,393.439 202.785,393.500 194.700 C 393.560 186.615,393.560 173.385,393.500 165.300 C 393.439 157.215,393.390 163.830,393.390 180.000 M396.920 164.000 C 396.920 165.210,396.995 165.705,397.087 165.100 C 397.178 164.495,397.178 163.505,397.087 162.900 C 396.995 162.295,396.920 162.790,396.920 164.000 M393.376 222.000 C 393.376 228.270,393.432 230.835,393.499 227.700 C 393.567 224.565,393.567 219.435,393.499 216.300 C 393.432 213.165,393.376 215.730,393.376 222.000 M393.072 266.200 C 392.492 327.981,392.539 579.308,393.130 580.200 C 393.622 580.942,393.643 580.945,393.418 580.235 C 393.148 579.386,393.195 319.702,393.473 271.000 C 393.570 254.060,393.586 238.940,393.509 237.400 C 393.432 235.860,393.235 248.820,393.072 266.200 M397.549 290.500 C 397.852 290.886,398.570 291.176,399.149 291.146 L 400.200 291.091 399.200 290.907 C 398.650 290.806,397.930 290.516,397.600 290.262 C 397.078 289.860,397.071 289.891,397.549 290.500 M392.815 583.361 C 392.283 584.759,391.751 584.975,388.200 585.232 L 385.000 585.465 388.000 585.526 C 391.458 585.598,392.819 585.071,393.238 583.500 C 393.599 582.145,393.313 582.051,392.815 583.361 M311.900 585.095 C 313.055 585.176,314.945 585.176,316.100 585.095 C 317.255 585.014,316.310 584.948,314.000 584.948 C 311.690 584.948,310.745 585.014,311.900 585.095 M335.900 585.095 C 337.055 585.176,338.945 585.176,340.100 585.095 C 341.255 585.014,340.310 584.948,338.000 584.948 C 335.690 584.948,334.745 585.014,335.900 585.095 M358.900 585.087 C 359.505 585.178,360.495 585.178,361.100 585.087 C 361.705 584.995,361.210 584.920,360.000 584.920 C 358.790 584.920,358.295 584.995,358.900 585.087 M127.900 589.095 C 129.055 589.176,130.945 589.176,132.100 589.095 C 133.255 589.014,132.310 588.948,130.000 588.948 C 127.690 588.948,126.745 589.014,127.900 589.095 M150.900 589.087 C 151.505 589.178,152.495 589.178,153.100 589.087 C 153.705 588.995,153.210 588.920,152.000 588.920 C 150.790 588.920,150.295 588.995,150.900 589.087 M199.900 589.095 C 201.055 589.176,202.945 589.176,204.100 589.095 C 205.255 589.014,204.310 588.948,202.000 588.948 C 199.690 588.948,198.745 589.014,199.900 589.095 M271.900 589.095 C 273.055 589.176,274.945 589.176,276.100 589.095 C 277.255 589.014,276.310 588.948,274.000 588.948 C 271.690 588.948,270.745 589.014,271.900 589.095 M283.900 589.095 C 285.055 589.176,286.945 589.176,288.100 589.095 C 289.255 589.014,288.310 588.948,286.000 588.948 C 283.690 588.948,282.745 589.014,283.900 589.095 M391.900 589.095 C 393.055 589.176,394.945 589.176,396.100 589.095 C 397.255 589.014,396.310 588.948,394.000 588.948 C 391.690 588.948,390.745 589.014,391.900 589.095 M39.900 593.095 C 41.055 593.176,42.945 593.176,44.100 593.095 C 45.255 593.014,44.310 592.948,42.000 592.948 C 39.690 592.948,38.745 593.014,39.900 593.095 M87.900 593.095 C 89.055 593.176,90.945 593.176,92.100 593.095 C 93.255 593.014,92.310 592.948,90.000 592.948 C 87.690 592.948,86.745 593.014,87.900 593.095 M98.900 593.087 C 99.505 593.178,100.495 593.178,101.100 593.087 C 101.705 592.995,101.210 592.920,100.000 592.920 C 98.790 592.920,98.295 592.995,98.900 593.087 " stroke="none" fill="#f0f8ec" fill-rule="evenodd"></path><path id="path4" d="M356.200 6.820 L 353.800 7.106 356.267 7.053 C 358.257 7.010,358.651 7.101,358.300 7.523 C 357.977 7.911,358.000 8.014,358.392 7.923 C 358.827 7.821,358.914 20.323,358.889 79.292 C 358.856 158.868,358.595 151.583,361.536 153.108 L 362.871 153.800 362.900 292.103 C 362.921 391.533,363.053 430.658,363.368 431.303 C 363.609 431.796,364.451 432.516,365.240 432.903 L 366.673 433.605 366.893 443.103 C 367.164 454.787,366.954 583.979,366.664 584.269 C 366.268 584.666,366.887 585.600,367.543 585.594 C 367.932 585.590,368.031 585.468,367.787 585.294 C 367.356 584.988,367.255 584.212,367.600 583.867 C 368.317 583.150,367.370 433.470,366.646 433.044 C 366.232 432.800,365.377 432.179,364.746 431.664 L 363.600 430.729 363.600 292.364 C 363.600 161.090,363.564 153.969,362.900 153.385 C 362.515 153.047,361.614 152.311,360.898 151.748 L 359.596 150.725 359.600 79.663 C 359.602 40.578,359.581 8.465,359.552 8.300 C 359.373 7.270,359.418 6.969,359.787 6.706 C 360.242 6.382,359.748 6.398,356.200 6.820 M237.861 7.100 C 237.758 7.265,240.133 7.353,243.137 7.296 C 253.218 7.105,254.260 6.960,246.124 6.879 C 241.682 6.836,237.963 6.935,237.861 7.100 M270.900 7.100 C 275.905 7.163,284.095 7.163,289.100 7.100 C 294.105 7.036,290.010 6.984,280.000 6.984 C 269.990 6.984,265.895 7.036,270.900 7.100 M311.900 7.099 C 315.255 7.166,320.745 7.166,324.100 7.099 C 327.455 7.032,324.710 6.978,318.000 6.978 C 311.290 6.978,308.545 7.032,311.900 7.099 M364.583 7.572 C 364.709 7.777,364.675 8.030,364.507 8.134 C 363.719 8.621,364.560 150.490,365.354 150.956 C 365.768 151.200,366.623 151.821,367.254 152.336 L 368.400 153.271 368.400 291.636 C 368.400 422.910,368.436 430.031,369.100 430.615 C 369.485 430.953,370.385 431.689,371.100 432.250 L 372.400 433.271 372.400 505.612 C 372.400 550.432,372.543 578.041,372.777 578.186 C 373.091 578.380,373.103 433.654,372.789 433.300 C 372.740 433.245,372.675 433.065,372.644 432.900 C 372.500 432.132,371.790 431.472,370.551 430.954 L 369.200 430.389 369.153 424.095 C 369.127 420.633,369.125 358.310,369.148 285.600 C 369.195 142.204,369.354 151.861,366.929 151.034 C 366.229 150.795,365.549 150.489,365.416 150.354 C 365.088 150.020,365.061 8.149,365.388 7.619 C 365.531 7.389,365.356 7.200,365.000 7.200 C 364.644 7.200,364.456 7.368,364.583 7.572 M366.632 7.652 C 366.786 7.901,366.875 9.611,366.831 11.452 C 366.777 13.706,366.897 14.800,367.199 14.800 C 367.445 14.800,367.549 14.960,367.428 15.155 C 367.153 15.599,367.896 16.209,369.200 16.610 C 370.107 16.888,370.077 16.813,368.876 15.803 C 367.580 14.712,367.553 14.625,367.604 11.644 C 367.633 9.970,367.622 8.420,367.581 8.200 C 367.539 7.980,367.527 7.665,367.553 7.500 C 367.579 7.335,367.319 7.200,366.976 7.200 C 366.615 7.200,366.470 7.390,366.632 7.652 M380.447 7.500 C 380.473 7.665,380.473 7.980,380.446 8.200 C 379.795 13.572,380.534 293.912,381.201 294.579 C 382.000 295.377,382.000 295.377,382.799 294.579 C 383.466 293.912,384.205 13.572,383.554 8.200 C 383.527 7.980,383.527 7.665,383.553 7.500 C 383.579 7.335,383.319 7.200,382.976 7.200 C 382.581 7.200,382.465 7.382,382.660 7.697 C 382.829 7.971,382.939 72.427,382.904 150.932 C 382.839 295.965,382.840 295.800,381.493 294.453 C 381.038 293.998,380.892 8.422,381.347 7.686 C 381.533 7.384,381.411 7.200,381.024 7.200 C 380.681 7.200,380.421 7.335,380.447 7.500 M393.286 12.300 L 393.372 17.400 393.499 12.615 C 393.585 9.418,393.788 7.728,394.113 7.521 C 394.450 7.308,394.384 7.210,393.900 7.206 C 393.265 7.201,393.208 7.675,393.286 12.300 M396.794 11.919 L 396.987 14.200 397.118 12.244 C 397.190 11.169,397.103 10.142,396.924 9.963 C 396.746 9.784,396.687 10.664,396.794 11.919 M234.163 10.397 C 233.912 10.648,224.964 10.833,209.783 10.900 L 185.800 11.006 209.851 11.103 C 230.822 11.188,233.966 11.123,234.400 10.600 C 234.956 9.930,234.780 9.780,234.163 10.397 M77.862 11.100 C 77.694 11.371,112.691 11.369,160.200 11.095 C 170.100 11.038,155.666 10.949,128.124 10.896 C 100.582 10.843,77.964 10.935,77.862 11.100 M74.162 14.398 C 73.905 14.655,60.632 14.833,36.782 14.900 L -0.200 15.004 36.851 15.102 C 69.378 15.188,73.963 15.127,74.400 14.600 C 74.956 13.930,74.780 13.780,74.162 14.398 M371.102 21.600 C 370.606 27.908,370.867 298.683,371.369 299.679 C 371.606 300.149,372.372 300.728,373.071 300.966 C 373.771 301.205,374.465 301.524,374.614 301.676 C 375.363 302.438,375.020 578.003,374.270 578.241 C 373.868 578.369,373.628 578.561,373.736 578.669 C 373.843 578.777,374.307 578.664,374.766 578.418 L 375.600 577.972 375.600 440.023 L 375.600 302.074 373.601 300.400 L 371.601 298.726 371.501 158.263 C 371.445 81.008,371.266 19.510,371.102 21.600 M393.384 36.000 C 393.384 45.570,393.436 49.485,393.500 44.700 C 393.563 39.915,393.563 32.085,393.500 27.300 C 393.436 22.515,393.384 26.430,393.384 36.000 M396.948 46.000 C 396.948 48.310,397.014 49.255,397.095 48.100 C 397.176 46.945,397.176 45.055,397.095 43.900 C 397.014 42.745,396.948 43.690,396.948 46.000 M393.382 70.000 C 393.382 78.470,393.435 81.935,393.499 77.700 C 393.564 73.465,393.564 66.535,393.499 62.300 C 393.435 58.065,393.382 61.530,393.382 70.000 M396.920 60.000 C 396.920 61.210,396.995 61.705,397.087 61.100 C 397.178 60.495,397.178 59.505,397.087 58.900 C 396.995 58.295,396.920 58.790,396.920 60.000 M393.387 110.000 C 393.387 122.870,393.438 128.135,393.500 121.700 C 393.562 115.265,393.562 104.735,393.500 98.300 C 393.438 91.865,393.387 97.130,393.387 110.000 M393.366 142.000 C 393.366 146.070,393.425 147.735,393.498 145.700 C 393.571 143.665,393.571 140.335,393.498 138.300 C 393.425 136.265,393.366 137.930,393.366 142.000 M393.390 180.000 C 393.390 196.170,393.439 202.785,393.500 194.700 C 393.560 186.615,393.560 173.385,393.500 165.300 C 393.439 157.215,393.390 163.830,393.390 180.000 M396.920 164.000 C 396.920 165.210,396.995 165.705,397.087 165.100 C 397.178 164.495,397.178 163.505,397.087 162.900 C 396.995 162.295,396.920 162.790,396.920 164.000 M393.376 222.000 C 393.376 228.270,393.432 230.835,393.499 227.700 C 393.567 224.565,393.567 219.435,393.499 216.300 C 393.432 213.165,393.376 215.730,393.376 222.000 M393.072 266.200 C 392.492 327.981,392.539 579.308,393.130 580.200 C 393.622 580.942,393.643 580.945,393.418 580.235 C 393.148 579.386,393.195 319.702,393.473 271.000 C 393.570 254.060,393.586 238.940,393.509 237.400 C 393.432 235.860,393.235 248.820,393.072 266.200 M397.549 290.500 C 397.852 290.886,398.570 291.176,399.149 291.146 L 400.200 291.091 399.200 290.907 C 398.650 290.806,397.930 290.516,397.600 290.262 C 397.078 289.860,397.071 289.891,397.549 290.500 M392.815 583.361 C 392.283 584.759,391.751 584.975,388.200 585.232 L 385.000 585.465 388.000 585.526 C 391.458 585.598,392.819 585.071,393.238 583.500 C 393.599 582.145,393.313 582.051,392.815 583.361 M311.900 585.095 C 313.055 585.176,314.945 585.176,316.100 585.095 C 317.255 585.014,316.310 584.948,314.000 584.948 C 311.690 584.948,310.745 585.014,311.900 585.095 M335.900 585.095 C 337.055 585.176,338.945 585.176,340.100 585.095 C 341.255 585.014,340.310 584.948,338.000 584.948 C 335.690 584.948,334.745 585.014,335.900 585.095 M358.900 585.087 C 359.505 585.178,360.495 585.178,361.100 585.087 C 361.705 584.995,361.210 584.920,360.000 584.920 C 358.790 584.920,358.295 584.995,358.900 585.087 M127.900 589.095 C 129.055 589.176,130.945 589.176,132.100 589.095 C 133.255 589.014,132.310 588.948,130.000 588.948 C 127.690 588.948,126.745 589.014,127.900 589.095 M150.900 589.087 C 151.505 589.178,152.495 589.178,153.100 589.087 C 153.705 588.995,153.210 588.920,152.000 588.920 C 150.790 588.920,150.295 588.995,150.900 589.087 M199.900 589.095 C 201.055 589.176,202.945 589.176,204.100 589.095 C 205.255 589.014,204.310 588.948,202.000 588.948 C 199.690 588.948,198.745 589.014,199.900 589.095 M271.900 589.095 C 273.055 589.176,274.945 589.176,276.100 589.095 C 277.255 589.014,276.310 588.948,274.000 588.948 C 271.690 588.948,270.745 589.014,271.900 589.095 M283.900 589.095 C 285.055 589.176,286.945 589.176,288.100 589.095 C 289.255 589.014,288.310 588.948,286.000 588.948 C 283.690 588.948,282.745 589.014,283.900 589.095 M391.900 589.095 C 393.055 589.176,394.945 589.176,396.100 589.095 C 397.255 589.014,396.310 588.948,394.000 588.948 C 391.690 588.948,390.745 589.014,391.900 589.095 M39.900 593.095 C 41.055 593.176,42.945 593.176,44.100 593.095 C 45.255 593.014,44.310 592.948,42.000 592.948 C 39.690 592.948,38.745 593.014,39.900 593.095 M87.900 593.095 C 89.055 593.176,90.945 593.176,92.100 593.095 C 93.255 593.014,92.310 592.948,90.000 592.948 C 87.690 592.948,86.745 593.014,87.900 593.095 M98.900 593.087 C 99.505 593.178,100.495 593.178,101.100 593.087 C 101.705 592.995,101.210 592.920,100.000 592.920 C 98.790 592.920,98.295 592.995,98.900 593.087 " stroke="none" fill="#f0f8ec" fill-rule="evenodd"></path></g></svg>